<svg xmlns="http://www.w3.org/2000/svg" viewBox="0 0 1200 750">
  <rect width="1200" height="750" fill="#f4eee4"/>
  <rect x="70" y="70" width="1060" height="610" fill="#1b1612"/>
  <rect x="130" y="130" width="940" height="490" fill="#24352c"/>
  <g fill="#f4eee4">
    <rect x="92" y="110" width="34" height="44"/>
    <rect x="92" y="206" width="34" height="44"/>
    <rect x="92" y="302" width="34" height="44"/>
    <rect x="92" y="398" width="34" height="44"/>
    <rect x="92" y="494" width="34" height="44"/>
    <rect x="1074" y="110" width="34" height="44"/>
    <rect x="1074" y="206" width="34" height="44"/>
    <rect x="1074" y="302" width="34" height="44"/>
    <rect x="1074" y="398" width="34" height="44"/>
    <rect x="1074" y="494" width="34" height="44"/>
  </g>
  <circle cx="600" cy="350" r="120" fill="#f6c753"/>
  <polygon points="562,276 562,424 686,350" fill="#1b1612"/>
  <text x="250" y="560" fill="#fff8ec" font-family="Georgia, serif" font-size="78" font-weight="700">STREAMING VERDICT</text>
</svg>
